PathFileType	4	(X/Y/Z)	Patient4_TMGait_0pt3_01_right_26.trc.trc
DataRate	CameraRate	NumFrames	NumMarkers	Units	OrigDataRate	OrigDataStartFrame	OrigNumFrames
50.000000000000	50.000000000000	5	33	mm	50.000000000000	36	       141
Frame#	Time	Sacral			L.Shoulder			Chest			R.Shoulder			Neck			R.ASIS			L.ASIS			R.Thigh.Superior			R.Thigh.Lateral			R.Thigh.Inferior			R.Patella			L.Thigh.Superior			L.Thigh.Lateral			L.Thigh.Inferior			L.Patella			L.Shank.Superior			L.Shank.Lateral			L.Shank.Inferior			R.Shank.Superior			R.Shank.Lateral			R.Shank.Inferior			R.Heel			R.Midfoot.Superior			R.Midfoot.Lateral			R.Toe			L.Heel			L.Midfoot.Lateral			L.Midfoot.Superior			L.Toe			L.Elbow			L.Wrist			R.Elbow			R.Wrist			
		X1	Y1	Z1	X2	Y2	Z2	X3	Y3	Z3	X4	Y4	Z4	X5	Y5	Z5	X6	Y6	Z6	X7	Y7	Z7	X8	Y8	Z8	X9	Y9	Z9	X10	Y10	Z10	X11	Y11	Z11	X12	Y12	Z12	X13	Y13	Z13	X14	Y14	Z14	X15	Y15	Z15	X16	Y16	Z16	X17	Y17	Z17	X18	Y18	Z18	X19	Y19	Z19	X20	Y20	Z20	X21	Y21	Z21	X22	Y22	Z22	X23	Y23	Z23	X24	Y24	Z24	X25	Y25	Z25	X26	Y26	Z26	X27	Y27	Z27	X28	Y28	Z28	X29	Y29	Z29	X30	Y30	Z30	X31	Y31	Z31	X32	Y32	Z32	X33	Y33	Z33	

36	48.590000000000	710.451931854067	1002.670439447486	499.873097941573	928.317914704140	1439.956017749073	375.333315078386	990.157670690095	1361.931368621173	552.243010627256	867.904745216193	1430.483449216516	703.943327355804	874.307105406561	1493.189516076852	529.215212021132	920.804075307423	940.662774838506	653.292682287768	947.222198478948	960.458620836383	381.160170149754	982.525397825253	748.232474873018	621.121560250921	906.995050782924	631.513998333377	672.010836938249	995.069644620003	587.566603294524	596.946841985083	1003.277732298951	499.253662877202	602.702782106053	961.557202083649	731.137307661791	400.486933281244	861.840382007420	626.323729802888	327.320761430960	931.998354147359	535.043968010055	390.737279143648	918.705532014917	456.175671414440	389.312776373932	859.812240199869	399.147268719661	379.852471419770	730.418588679680	333.406963998620	325.943354197665	735.422683370680	204.791139647381	384.653437369289	977.921562726363	408.344985525930	607.249085023305	908.159419771124	301.406520752150	666.016731804081	956.468454516357	208.563552008201	603.752004033742	828.601758403333	42.507543423253	570.665711323199	999.656223181246	97.825615396211	608.039899491878	911.685554640039	36.784457264825	645.744569403037	1119.541798413780	47.497124406461	634.549169052525	560.020349226948	96.685445267445	418.704624733634	629.576614841806	70.024878552148	340.273951215936	726.394591856606	107.646224142995	364.311798389451	833.087861769613	33.836373023246	338.348018520587	1055.486870355491	1140.813676322433	217.020502744910	1310.083338451583	1092.308503058947	246.453400052787	734.989513511767	1102.470796590445	783.965606801498	757.411060540515	844.777531959110	823.772991015447	
37	48.610000000000	710.874860355323	1003.290742330936	506.678985911709	926.293837721513	1441.006219384849	379.333389835115	990.727410990476	1362.877136065238	555.318739307039	870.509281184944	1430.908990360693	708.694103538086	874.393569736873	1494.097600772711	533.822621548601	923.038764709787	941.217949901169	657.291406675921	946.172752844212	961.459130169297	385.036451853737	982.484832020690	747.336210056783	624.948184569968	905.636970096846	631.379698407372	675.461986196877	992.903011035191	586.748552330539	599.934304586109	1000.138856576724	498.519296050210	605.046667230965	965.809671718366	733.775708322441	403.888681624524	869.379587504453	626.938859621694	330.583454347183	942.698051901283	536.720970235804	393.353583907800	930.325392157523	456.432556241194	390.829311722176	869.079693304623	400.073014620178	381.610817476474	737.177264360574	339.356558896065	327.951450440390	738.456400231942	210.059674645773	385.207260423794	974.282365651759	407.839139939394	609.148101383756	904.167446642448	300.957241787487	667.546787610073	951.594243739517	208.183391855444	604.479571685995	822.919279070845	42.455699650419	570.788815863397	993.970237844068	97.751058436845	608.202875099507	906.005530356928	36.755122837762	645.838186692557	1113.908171469733	47.245160962094	634.721779009521	559.357218280903	109.558444488097	418.840731094312	627.435274411051	79.284499470011	340.399869236451	726.061371905178	111.864961286030	364.226693946350	828.103170321302	33.077741274354	338.440768500802	1048.300207810490	1138.388745401098	221.871752621884	1302.320785462565	1083.960543551662	249.146320583033	741.964098474728	1102.009626716799	793.303431821714	768.523439628112	845.007650076271	834.693660216568	
38	48.630000000000	710.999281713619	1003.761153351978	513.326051243157	923.987041879600	1441.824762021091	382.993884260888	991.065445958172	1363.639288641456	558.009330591564	873.018828775578	1431.254207496009	713.082303529830	874.329336692192	1494.869227494425	538.097992165727	924.956226702508	941.642882525991	661.073327609172	944.758471502182	962.298585662542	388.683609025813	982.155526141479	746.428011418433	628.509765930827	904.066448362363	631.171168246926	678.706913128481	990.539691927455	585.914197886855	602.744193661036	996.826983634717	497.762123763943	607.269174372841	970.215297208645	736.678508425356	407.376437469596	877.613043726025	627.676469415842	333.831455613091	954.036124642919	538.820899279503	396.298915828165	942.725450898112	457.107561032388	392.714108258486	879.234231750620	401.269752418275	383.621224813541	745.028060812694	345.693142232259	330.110133961476	742.340737027568	215.946000414099	386.086966604744	970.502023120039	407.310317955107	610.938555296043	900.035795444902	300.487936751525	668.950003437803	946.651584012003	207.807749938585	605.158115374594	817.203082945954	42.426000945168	570.872240049587	988.240146779115	97.674753003312	608.342505290257	900.278079501033	36.736472381866	645.905000275848	1108.215481586157	46.987149810567	634.901331254608	559.706116863410	123.373490330919	419.275610587986	626.172907420383	89.681870005580	340.749726823511	726.451388232637	116.990175256836	364.476896995854	823.624246180880	32.689941846785	338.620803131077	1039.984004542946	1135.315411047584	226.672451119838	1293.031231041083	1073.859565424845	251.679355981424	749.609050849386	1101.322464204592	802.529787403232	780.171360930105	845.106964480847	845.642861652414	
39	48.650000000000	710.835336819015	1004.065603897982	519.758511714156	921.405820902015	1442.394835713596	386.308745223695	991.144291089887	1364.213319919413	560.320846686025	875.373670437696	1431.525444314359	717.085453929610	874.094068271952	1495.487104811488	542.020189401339	926.566291695214	941.945797576233	664.628612361870	943.030088502739	962.975257975888	392.090461372998	981.643845422977	745.554737995916	631.761454932800	902.452398681022	630.896118309094	681.718378681603	988.156390139622	585.092257794420	605.335751234801	993.553484994332	496.969535490621	609.342643158810	974.666298904576	739.829520792193	410.991926513095	886.368203028466	628.589002616007	337.097082490875	965.758921511962	541.380846730462	399.620808242901	955.659470912889	458.249607203120	395.018112429876	890.061113621571	402.770382288343	385.918233525536	753.784587902613	352.335663129102	332.479189336338	747.000289364485	222.366544471244	387.350965342436	966.736399341575	406.742502568159	612.593840093898	895.872865211095	300.016423813733	670.216629118412	941.693242676830	207.424671308523	605.771125190865	811.420243381186	42.420693502963	570.921165397920	982.449106184630	97.593028232106	608.453890701760	894.474059885494	36.729663546846	645.949388368645	1102.440206883730	46.718030312933	635.075053434055	561.102512824921	137.778699086940	420.115371804597	625.871045550921	100.994168215916	341.410875910304	727.585967497467	122.991821243779	365.118218555072	819.831777959679	32.876891450111	338.899377832738	1030.600160216724	1131.656554403240	231.441339397788	1282.063568971008	1061.881718183928	254.096597361901	757.972498149665	1100.368587562527	811.466423704153	792.510669389710	845.052595058828	856.469996097959	
40	48.670000000000	710.404420909830	1004.188640203253	525.933720663983	918.559106737211	1442.706500679256	389.276386230781	990.946396985497	1364.600567662108	562.263058370437	877.528130898415	1431.729921571732	720.690482897108	873.671929304346	1495.936635930360	545.572628453899	927.885986607625	942.138362771227	667.956492547939	941.051737021846	963.493618636289	395.254378424434	981.052842996045	744.748031603285	634.695838445731	900.941643565103	630.553490373293	684.488266267327	985.917044312186	584.298966362879	607.696086334459	990.518149271439	496.123235658384	611.262578961306	979.046999372679	743.198038847821	414.756437056897	895.435683094131	629.716253661319	340.395669111669	977.604217685399	544.409878244037	403.307384277935	968.869942041968	459.881669085264	397.730306768928	901.329371969870	404.589167436930	388.494262359285	763.225215163436	359.171239773072	335.099712744937	752.353909431955	229.184962278433	389.025026744438	963.129241980177	406.117394584637	614.107478125929	891.773584717070	299.555913594073	671.348064476394	936.768663108423	207.024059087568	606.316063376513	805.557178429587	42.438131298358	570.944788990116	976.593896310294	97.507807801173	608.537959851549	888.584850834651	36.733068170730	645.977272339656	1096.576361591901	46.445172447895	635.233609391654	563.554456561259	152.340599537108	421.454022115426	626.589554958361	112.895334272920	342.460141154639	729.488809046621	129.751502934880	366.176640261734	816.924590354343	33.828026563867	339.281867762922	1020.249927492364	1127.499007641289	236.201734417440	1269.256454379260	1047.953492238456	256.439266103300	767.056726205141	1099.142701420485	819.944127690223	805.679119791880	844.864142631360	867.010539782992	
